# xmcd
# Copyright (C) 1995-1998 Ti Kan
#
# Track frame offsets:
#       150
#       12665
#       20550
#       30607
#       41371
#       57735
#       67752
#       88223
#       97836
#       118442
#       125510
#       161363
#
# Disc length: 2382 seconds
#
# Revision: 0
# Processed by: cddbd v1.5.2PL0 Copyright (c) Steve Scherf et al.
# Submitted via: CD-Import v1.0
#
DISCID=9e094c0c
DTITLE=Hukedicht Vs Teenage Kings - Street Fight Story
DYEAR=2005
DGENRE=
TTITLE0=You Have To Know
TTITLE1=Me Against The World
TTITLE2=Hit Me
TTITLE3=Hard Rock City
TTITLE4=Fistland
TTITLE5=Let's Fight
TTITLE6=Saturday Night's Alright For Fighting
TTITLE7=Kung Fu Fighting
TTITLE8=Indian Donkey
TTITLE9=Teenage Kings
TTITLE10=We Are The World
TTITLE11=Data Track
EXTD=
EXTT0=
EXTT1=
EXTT2=
EXTT3=
EXTT4=
EXTT5=
EXTT6=
EXTT7=
EXTT8=
EXTT9=
EXTT10=
EXTT11=
PLAYORDER=
